# xmcd
#
# Track frame offsets:
#	150
#	12268
#	22408
#	34713
#	45505
#	59770
#	72623
#	85330
#	99195
#
# Disc length: 1497 seconds
#
# Revision: 1
# Processed by: cddbd v1.4PL0 Copyright (c) Steve Scherf et al.
# Submitted via: audiograbber 1.82.00
#
DISCID=7805d709
DTITLE=Moe Bandy - Cheating Situation
DYEAR=1900
DGENRE=
TTITLE0=It's A Cheating Situation
TTITLE1=Does Fortworth Ever Cross Your Mind
TTITLE2=A Ghost Of A Chance
TTITLE3=Misery Loves Company
TTITLE4=Hank Williams You Wrote My Life
TTITLE5=Soft Lights and Hard Country Music
TTITLE6=A Wond Time Can't Erase
TTITLE7=The Wild Side Of Life
TTITLE8=Yesterday Once More
EXTD=
EXTT0=
EXTT1=
EXTT2=
EXTT3=
EXTT4=
EXTT5=
EXTT6=
EXTT7=
EXTT8=
PLAYORDER=
